<svg xmlns="http://www.w3.org/2000/svg" width="900" height="620" viewBox="0 0 900 620"><rect width="900" height="620" fill="white"/><text x="450" y="36" text-anchor="middle" font-family="Arial" font-size="25" font-weight="700">Advanced Model Test Confusion Matrix</text><g transform="translate(210,90)" font-family="Arial" font-size="13"><g fill="#dbeafe" stroke="#94a3b8"><rect x="0" y="0" width="65" height="55"/><rect x="65" y="0" width="65" height="55"/><rect x="130" y="0" width="65" height="55"/><rect x="195" y="0" width="65" height="55"/><rect x="260" y="0" width="65" height="55"/><rect x="325" y="0" width="65" height="55"/><rect x="390" y="0" width="65" height="55"/><rect x="0" y="55" width="65" height="55"/><rect x="65" y="55" width="65" height="55"/><rect x="130" y="55" width="65" height="55"/><rect x="195" y="55" width="65" height="55"/><rect x="260" y="55" width="65" height="55"/><rect x="325" y="55" width="65" height="55"/><rect x="390" y="55" width="65" height="55"/><rect x="0" y="110" width="65" height="55"/><rect x="65" y="110" width="65" height="55"/><rect x="130" y="110" width="65" height="55"/><rect x="195" y="110" width="65" height="55"/><rect x="260" y="110" width="65" height="55"/><rect x="325" y="110" width="65" height="55"/><rect x="390" y="110" width="65" height="55"/><rect x="0" y="165" width="65" height="55"/><rect x="65" y="165" width="65" height="55"/><rect x="130" y="165" width="65" height="55"/><rect x="195" y="165" width="65" height="55"/><rect x="260" y="165" width="65" height="55"/><rect x="325" y="165" width="65" height="55"/><rect x="390" y="165" width="65" height="55"/><rect x="0" y="220" width="65" height="55"/><rect x="65" y="220" width="65" height="55"/><rect x="130" y="220" width="65" height="55"/><rect x="195" y="220" width="65" height="55"/><rect x="260" y="220" width="65" height="55"/><rect x="325" y="220" width="65" height="55"/><rect x="390" y="220" width="65" height="55"/><rect x="0" y="275" width="65" height="55"/><rect x="65" y="275" width="65" height="55"/><rect x="130" y="275" width="65" height="55"/><rect x="195" y="275" width="65" height="55"/><rect x="260" y="275" width="65" height="55"/><rect x="325" y="275" width="65" height="55"/><rect x="390" y="275" width="65" height="55"/><rect x="0" y="330" width="65" height="55"/><rect x="65" y="330" width="65" height="55"/><rect x="130" y="330" width="65" height="55"/><rect x="195" y="330" width="65" height="55"/><rect x="260" y="330" width="65" height="55"/><rect x="325" y="330" width="65" height="55"/><rect x="390" y="330" width="65" height="55"/></g><g fill="#2563eb" opacity="0.35"><rect x="0" y="0" width="65" height="55"/><rect x="65" y="55" width="65" height="55"/><rect x="130" y="110" width="65" height="55"/><rect x="195" y="165" width="65" height="55"/><rect x="260" y="220" width="65" height="55"/><rect x="325" y="275" width="65" height="55"/><rect x="390" y="330" width="65" height="55"/></g><g text-anchor="middle" dominant-baseline="middle" fill="#111827" font-size="15"><text x="32" y="27">56</text><text x="97" y="27">1</text><text x="162" y="27">0</text><text x="227" y="27">4</text><text x="292" y="27">0</text><text x="357" y="27">0</text><text x="422" y="27">1</text><text x="32" y="82">2</text><text x="97" y="82">42</text><text x="162" y="82">3</text><text x="227" y="82">2</text><text x="292" y="82">0</text><text x="357" y="82">0</text><text x="422" y="82">1</text><text x="32" y="137">0</text><text x="97" y="137">0</text><text x="162" y="137">208</text><text x="227" y="137">3</text><text x="292" y="137">0</text><text x="357" y="137">2</text><text x="422" y="137">2</text><text x="32" y="192">0</text><text x="97" y="192">1</text><text x="162" y="192">1</text><text x="227" y="192">222</text><text x="292" y="192">0</text><text x="357" y="192">0</text><text x="422" y="192">2</text><text x="32" y="247">2</text><text x="97" y="247">0</text><text x="162" y="247">7</text><text x="227" y="247">1</text><text x="292" y="247">16</text><text x="357" y="247">0</text><text x="422" y="247">1</text><text x="32" y="302">0</text><text x="97" y="302">0</text><text x="162" y="302">1</text><text x="227" y="302">5</text><text x="292" y="302">0</text><text x="357" y="302">38</text><text x="422" y="302">2</text><text x="32" y="357">2</text><text x="97" y="357">2</text><text x="162" y="357">3</text><text x="227" y="357">2</text><text x="292" y="357">0</text><text x="357" y="357">0</text><text x="422" y="357">145</text></g><g fill="#374151" font-size="12" text-anchor="middle"><text x="32" y="410">Anx</text><text x="97" y="410">Bip</text><text x="162" y="410">Dep</text><text x="227" y="410">Norm</text><text x="292" y="410">Pers</text><text x="357" y="410">Stress</text><text x="422" y="410">Suic</text></g><g fill="#374151" font-size="12" text-anchor="end"><text x="-10" y="30">Anx</text><text x="-10" y="85">Bip</text><text x="-10" y="140">Dep</text><text x="-10" y="195">Norm</text><text x="-10" y="250">Pers</text><text x="-10" y="305">Stress</text><text x="-10" y="360">Suic</text></g></g><text x="438" y="555" text-anchor="middle" font-family="Arial" font-size="15">Predicted label</text><text x="90" y="285" text-anchor="middle" font-family="Arial" font-size="15" transform="rotate(-90 90 285)">Actual label</text></svg>